<?xml version="1.0" encoding="UTF-8" standalone="no"?>
<!-- Creator: CorelDRAW -->

<svg
   xmlns:dc="http://purl.org/dc/elements/1.1/"
   xmlns:cc="http://creativecommons.org/ns#"
   xmlns:rdf="http://www.w3.org/1999/02/22-rdf-syntax-ns#"
   xmlns:svg="http://www.w3.org/2000/svg"
   xmlns="http://www.w3.org/2000/svg"
   xmlns:sodipodi="http://sodipodi.sourceforge.net/DTD/sodipodi-0.dtd"
   xmlns:inkscape="http://www.inkscape.org/namespaces/inkscape"
   xml:space="preserve"
   width="500.00003"
   height="400.00003"
   style="fill-rule:evenodd"
   viewBox="0 0 59.182797 47.346239"
   id="svg3658"
   version="1.1"
   inkscape:version="0.47 r22583"
   sodipodi:docname="chip.svg"><metadata
   id="metadata3745"><rdf:RDF><cc:Work
       rdf:about=""><dc:format>image/svg+xml</dc:format><dc:type
         rdf:resource="http://purl.org/dc/dcmitype/StillImage" /><dc:title></dc:title></cc:Work></rdf:RDF></metadata><sodipodi:namedview
   pagecolor="#ffffff"
   bordercolor="#666666"
   borderopacity="1"
   objecttolerance="10"
   gridtolerance="10"
   guidetolerance="10"
   inkscape:pageopacity="0"
   inkscape:pageshadow="2"
   inkscape:window-width="1437"
   inkscape:window-height="848"
   id="namedview3743"
   showgrid="false"
   inkscape:snap-bbox="false"
   inkscape:snap-bbox-edge-midpoints="false"
   inkscape:snap-bbox-midpoints="false"
   inkscape:bbox-nodes="true"
   inkscape:bbox-paths="false"
   inkscape:object-nodes="true"
   inkscape:zoom="0.95024683"
   inkscape:cx="43.235444"
   inkscape:cy="149.26667"
   inkscape:window-x="1"
   inkscape:window-y="0"
   inkscape:window-maximized="1"
   inkscape:current-layer="svg3658" />
 <defs
   id="defs3660"><inkscape:perspective
   sodipodi:type="inkscape:persp3d"
   inkscape:vp_x="0 : 45.01984 : 1"
   inkscape:vp_y="0 : 1000 : 0"
   inkscape:vp_z="90.03968 : 45.01984 : 1"
   inkscape:persp3d-origin="45.01984 : 30.013227 : 1"
   id="perspective3747" />
  <style
   type="text/css"
   id="style3662">
   
    .str0 {stroke:#4D4948;stroke-width:0.147924}
    .str2 {stroke:#582E3A;stroke-width:0.29589}
    .str3 {stroke:#582E3A;stroke-width:0.29589;stroke-linecap:round}
    .str1 {stroke:#E77817;stroke-width:0.591821;stroke-linecap:round}
    .fil2 {fill:none}
    .fil1 {fill:#4D4948}
    .fil5 {fill:#582E3A}
    .fil3 {fill:#DEDEDD}
    .fil4 {fill:#582E3A;fill-rule:nonzero}
    .fil0 {fill:black;fill-rule:nonzero}
   
  </style>
 
  
  
 
   
   
   
   
   
   
   
   
   
  </defs>
<symbol
   id="Im1-1-0"
   viewBox="-4.01676 -138.622 8.66548 4.20885"
   transform="translate(6.4125263,58.985523)">
 <path
   class="fil0"
   d="m 1.28115,-136.647 0,0.0284 c -0.086229,-0.0572 -0.15346,-0.14138 -0.201775,-0.2521 -0.048106,-0.11072 -0.072137,-0.23206 -0.072137,-0.36379 0,-0.1369 0.025416,-0.26158 0.075912,-0.37411 0.050622,-0.11257 0.116678,-0.19305 0.198001,-0.24154 l 0,0.0277 c -0.040682,0.03 -0.074025,0.0708 -0.10028,0.12292 -0.026087,0.0518 -0.045589,0.11794 -0.058465,0.19775 -0.012834,0.0801 -0.019293,0.16353 -0.019293,0.25014 0,0.0983 0.00591,0.18692 0.017783,0.26632 0.011869,0.0794 0.030155,0.14503 0.054523,0.19712 0.024577,0.0523 0.059807,0.0992 0.105732,0.14117 z m 3.09369,-1.17542 0,-0.0277 c 0.086355,0.0568 0.153628,0.14071 0.201733,0.25143 0.048106,0.11072 0.072138,0.23206 0.072138,0.36379 0,0.1369 -0.025248,0.26184 -0.07587,0.37457 -0.050664,0.11278 -0.11672,0.19326 -0.198001,0.24175 l 0,-0.0284 c 0.040976,-0.03 0.074528,-0.071 0.100741,-0.12292 0.026087,-0.0518 0.045589,-0.11773 0.058297,-0.19754 0.012708,-0.0796 0.019167,-0.16328 0.019167,-0.25035 0,-0.0978 -0.00596,-0.1865 -0.017657,-0.26611 -0.011827,-0.0794 -0.029946,-0.14524 -0.05469,-0.19733 -0.024577,-0.0523 -0.059975,-0.0992 -0.105858,-0.14117 z"
   id="path3665"
   style="fill:#000000;fill-rule:nonzero" />
 <path
   class="fil0"
   d="m -3.94299,-135.704 0,-1.66252 1.3293,0 0,1.66252 -1.3293,0 z m 0.041689,-0.0417 1.24597,0 0,-1.57914 -1.24597,0 0,1.57914 z"
   id="path3667"
   style="fill:#000000;fill-rule:nonzero" />
 <polygon
   class="fil0"
   points="-3.11718,-138.214 -2.58701,-138.214 -2.58701,-138.164 -3.11718,-138.164 "
   id="polygon3669"
   style="fill:#000000;fill-rule:nonzero" />
 <path
   class="fil0"
   d="m -3.36572,-134.809 0.530169,0 0,0.0491 -0.530169,0 0,-0.0491 z m 0,0.18844 0.530169,0 0,0.05 -0.530169,0 0,-0.05 z"
   id="path3671"
   style="fill:#000000;fill-rule:nonzero" />
 <polygon
   class="fil0"
   points="-1.02209,-137.202 -0.491919,-137.202 -0.491919,-137.152 -1.02209,-137.152 "
   id="polygon3673"
   style="fill:#000000;fill-rule:nonzero" />
 <path
   class="fil0"
   d="m -2.49973,-138.541 0.166587,-0.0814 0.016734,0 0,0.57844 c 0,0.0383 0.00155,0.0622 0.00466,0.0717 0.00327,0.009 0.00998,0.0165 0.019964,0.0217 0.010191,0.005 0.030658,0.008 0.061694,0.009 l 0,0.0186 -0.257598,0 0,-0.0186 c 0.032378,-6.7e-4 0.053264,-0.003 0.062743,-0.008 0.00927,-0.005 0.015811,-0.0114 0.019586,-0.0197 0.00365,-0.008 0.00554,-0.0329 0.00554,-0.0739 l 0,-0.36983 c 0,-0.0498 -0.00172,-0.0817 -0.00499,-0.0958 -0.00243,-0.0109 -0.00675,-0.0188 -0.01296,-0.0238 -0.00617,-0.005 -0.013547,-0.008 -0.022354,-0.008 -0.012414,0 -0.02982,0.005 -0.052048,0.0157 l -0.00755,-0.0157 z"
   id="path3675"
   style="fill:#000000;fill-rule:nonzero" />
 <path
   class="fil0"
   d="m -2.74328,-134.764 c 0,-0.0781 0.011701,-0.14537 0.035314,-0.20173 0.023613,-0.0564 0.054774,-0.0984 0.093905,-0.12603 0.030323,-0.0219 0.061527,-0.0329 0.093905,-0.0329 0.052384,0 0.099567,0.0269 0.141297,0.0804 0.052216,0.0663 0.078219,0.15619 0.078219,0.2698 0,0.0795 -0.011366,0.14688 -0.034307,0.20241 -0.022857,0.0557 -0.052006,0.096 -0.08753,0.12104 -0.035482,0.0252 -0.069789,0.0376 -0.102838,0.0376 -0.065133,0 -0.119614,-0.0385 -0.163022,-0.11572 -0.036698,-0.065 -0.054942,-0.14322 -0.054942,-0.23478 z m 0.098895,0.0126 c 0,0.0943 0.011534,0.17137 0.034811,0.23084 0.019125,0.0502 0.047896,0.0753 0.08581,0.0753 0.018286,0 0.037033,-0.008 0.056494,-0.0245 0.01967,-0.0164 0.034475,-0.0438 0.044457,-0.0821 0.015518,-0.0579 0.023277,-0.13966 0.023277,-0.24498 0,-0.0781 -0.00809,-0.14326 -0.024325,-0.19552 -0.012037,-0.0388 -0.027723,-0.0662 -0.046848,-0.0824 -0.013798,-0.011 -0.030491,-0.0165 -0.049951,-0.0165 -0.022941,0 -0.043282,0.0101 -0.061149,0.0307 -0.024158,0.0279 -0.040682,0.0719 -0.04949,0.1319 -0.00881,0.06 -0.013085,0.11895 -0.013085,0.17724 z"
   id="path3677"
   style="fill:#000000;fill-rule:nonzero" />
 <polygon
   class="fil0"
   points="2.35617,-137.629 2.10826,-136.897 2.06791,-136.897 2.3157,-137.629 "
   id="polygon3679"
   style="fill:#000000;fill-rule:nonzero" />
 <path
   class="fil0"
   d="m -3.69164,-138.608 0.211422,0.53705 0.114581,-0.40116 c 0.00948,-0.033 0.014134,-0.0585 0.014134,-0.0768 0,-0.0124 -0.00432,-0.0222 -0.013127,-0.0293 -0.00877,-0.007 -0.024955,-0.0105 -0.048903,-0.0105 -0.00398,0 -0.00826,-1.6e-4 -0.012582,-5.4e-4 l 0.00549,-0.0188 0.220061,0 -0.00604,0.0188 c -0.022941,-3.4e-4 -0.039801,0.002 -0.051,0.007 -0.015853,0.007 -0.027597,0.0162 -0.035356,0.0272 -0.010653,0.0159 -0.021683,0.0435 -0.032713,0.0828 l -0.161093,0.56477 -0.018118,0 -0.227778,-0.5779 -0.121627,0.42687 c -0.00898,0.0323 -0.013631,0.0571 -0.013631,0.0742 0,0.0129 0.00415,0.0226 0.012414,0.0291 0.00826,0.007 0.02789,0.011 0.058758,0.0135 l -0.00499,0.0186 -0.215029,0 0.00705,-0.0186 c 0.026842,-6.7e-4 0.04496,-0.003 0.054103,-0.007 0.013798,-0.006 0.023948,-0.014 0.0307,-0.0238 0.00977,-0.0148 0.020635,-0.0435 0.032881,-0.0858 l 0.135761,-0.47636 c -0.013085,-0.0202 -0.027219,-0.0341 -0.042192,-0.0417 -0.015015,-0.007 -0.038292,-0.0117 -0.069957,-0.0128 l 0.00566,-0.0188 0.171117,0 z"
   id="path3681"
   style="fill:#000000;fill-rule:nonzero" />
 <path
   class="fil0"
   d="m -3.74209,-134.882 -0.067063,0.22979 c 0.062911,-0.0939 0.111142,-0.15585 0.144569,-0.1855 0.033427,-0.0295 0.065637,-0.0443 0.096631,-0.0443 0.016902,0 0.0307,0.006 0.041731,0.0165 0.010863,0.0112 0.016399,0.0257 0.016399,0.0434 0,0.0202 -0.00482,0.0472 -0.014679,0.0809 l -0.061485,0.21255 c -0.00726,0.0247 -0.010695,0.0397 -0.010695,0.045 0,0.005 0.00138,0.009 0.00394,0.0119 0.00277,0.003 0.0057,0.005 0.00864,0.005 0.00415,0 0.00898,-0.002 0.014637,-0.007 0.017909,-0.0141 0.037369,-0.0357 0.058591,-0.0647 l 0.015686,0.009 c -0.031371,0.0448 -0.061023,0.0769 -0.088914,0.096 -0.019502,0.0131 -0.037075,0.0197 -0.052426,0.0197 -0.01254,0 -0.022354,-0.004 -0.029778,-0.0114 -0.00742,-0.008 -0.011198,-0.0177 -0.011198,-0.0305 0,-0.0162 0.0057,-0.044 0.017238,-0.0833 l 0.058591,-0.20307 c 0.00738,-0.0252 0.01103,-0.045 0.01103,-0.0591 0,-0.007 -0.00226,-0.0122 -0.00654,-0.0164 -0.00432,-0.004 -0.00986,-0.006 -0.016231,-0.006 -0.00931,0 -0.020677,0.004 -0.033762,0.0122 -0.024996,0.0152 -0.050832,0.0402 -0.077674,0.075 -0.026926,0.0349 -0.055361,0.0793 -0.085307,0.13362 -0.015854,0.0286 -0.028981,0.0598 -0.039508,0.094 l -0.025122,0.0832 -0.075828,0 0.091849,-0.31618 c 0.010863,-0.0381 0.016189,-0.061 0.016189,-0.0686 0,-0.007 -0.00294,-0.014 -0.00881,-0.0195 -0.00583,-0.005 -0.013253,-0.008 -0.021893,-0.008 -0.00407,0 -0.011156,7.1e-4 -0.021306,0.002 l -0.019167,0.003 -0.00294,-0.0182 0.174598,-0.0312 z"
   id="path3683"
   style="fill:#000000;fill-rule:nonzero" />
 <path
   class="fil0"
   d="m 2.89536,-137.596 0.211422,0.53705 0.114623,-0.40116 c 0.00948,-0.033 0.014134,-0.0585 0.014134,-0.0768 0,-0.0124 -0.00432,-0.0222 -0.013127,-0.0293 -0.00877,-0.007 -0.024997,-0.0105 -0.048903,-0.0105 -0.00398,0 -0.00826,-1.6e-4 -0.012582,-5.4e-4 l 0.00549,-0.0188 0.220061,0 -0.00604,0.0188 c -0.022941,-3.4e-4 -0.039843,0.002 -0.051042,0.007 -0.015811,0.007 -0.027555,0.0162 -0.035314,0.0272 -0.010653,0.0159 -0.021725,0.0435 -0.032755,0.0828 l -0.161093,0.56477 -0.018076,0 -0.227778,-0.5779 -0.121669,0.42687 c -0.00898,0.0323 -0.013631,0.0571 -0.013631,0.0742 0,0.0129 0.00415,0.0226 0.012414,0.0291 0.00826,0.007 0.027932,0.011 0.0588,0.0135 l -0.00499,0.0186 -0.21507,0 0.00705,-0.0186 c 0.026884,-6.7e-4 0.045002,-0.003 0.054145,-0.007 0.013756,-0.006 0.023906,-0.014 0.030658,-0.0238 0.00981,-0.0148 0.020677,-0.0435 0.032923,-0.0858 l 0.135761,-0.47636 c -0.013127,-0.0202 -0.027261,-0.0341 -0.042192,-0.0417 -0.015015,-0.007 -0.038292,-0.0117 -0.069999,-0.0128 l 0.00566,-0.0188 0.171117,0 z m -1.31261,0.22795 -0.067063,0.22979 c 0.062911,-0.094 0.111142,-0.15585 0.144569,-0.1855 0.033469,-0.0295 0.065637,-0.0443 0.096673,-0.0443 0.016902,0 0.030659,0.005 0.041689,0.0165 0.010863,0.0112 0.016399,0.0257 0.016399,0.0435 0,0.0202 -0.00482,0.0472 -0.014679,0.0809 l -0.061485,0.21256 c -0.00726,0.0247 -0.010695,0.0397 -0.010695,0.045 0,0.005 0.00138,0.009 0.00394,0.0119 0.00277,0.003 0.0057,0.005 0.00864,0.005 0.00415,0 0.00898,-0.002 0.014637,-0.007 0.01795,-0.0141 0.037369,-0.0357 0.058591,-0.0647 l 0.015686,0.009 c -0.031371,0.0448 -0.060981,0.0769 -0.088914,0.096 -0.019502,0.0131 -0.037075,0.0197 -0.052384,0.0197 -0.012582,0 -0.022396,-0.004 -0.02982,-0.0114 -0.00742,-0.008 -0.011198,-0.0177 -0.011198,-0.0305 0,-0.0162 0.0057,-0.0439 0.017238,-0.0833 l 0.058591,-0.20308 c 0.00738,-0.0252 0.01103,-0.045 0.01103,-0.0591 0,-0.007 -0.00226,-0.0122 -0.00654,-0.0164 -0.00432,-0.004 -0.00986,-0.006 -0.016231,-0.006 -0.00931,0 -0.020635,0.004 -0.033762,0.0123 -0.024997,0.0152 -0.050832,0.0402 -0.077674,0.075 -0.026926,0.0349 -0.055319,0.0793 -0.085307,0.13362 -0.015853,0.0286 -0.028981,0.0598 -0.039508,0.094 l -0.025122,0.0832 -0.075786,0 0.09185,-0.31619 c 0.010821,-0.0381 0.016147,-0.061 0.016147,-0.0686 0,-0.007 -0.00294,-0.014 -0.00881,-0.0195 -0.00579,-0.006 -0.013211,-0.008 -0.021851,-0.008 -0.00411,0 -0.011198,7.1e-4 -0.021348,0.002 l -0.019167,0.003 -0.00294,-0.0182 0.174598,-0.0312 z m -1.27956,-0.20052 c 0.0141339,0 0.0260031,0.005 0.0358591,0.0146 0.009646,0.01 0.0146372,0.0216 0.0146372,0.0359 0,0.0138 -0.004991,0.0255 -0.0150147,0.0355 -0.009814,0.01 -0.0217251,0.0148 -0.0354816,0.0148 -0.0137984,0 -0.0256675,-0.005 -0.0356494,-0.0148 -0.009856,-0.01 -0.0148469,-0.0217 -0.0148469,-0.0355 0,-0.0143 0.004823,-0.0262 0.0146372,-0.0359 0.009688,-0.01 0.0216832,-0.0146 0.0358591,-0.0146 z m 0.006543,0.20052 -0.099944,0.35393 c -0.00671,0.0239 -0.0101496,0.0383 -0.0101496,0.0429 0,0.006 0.001552,0.01 0.004823,0.0133 0.003229,0.003 0.007046,0.005 0.0113239,0.005 0.005033,0 0.0110303,-0.003 0.0181183,-0.008 0.0192926,-0.0152 0.0386271,-0.0367 0.0580455,-0.0647 l 0.0177827,0.0116 c -0.0229414,0.035 -0.0497833,0.0645 -0.0808192,0.0884 -0.0228995,0.0179 -0.0447924,0.0267 -0.0656368,0.0267 -0.0137984,0 -0.0249965,-0.004 -0.033762,-0.0122 -0.008807,-0.008 -0.0130854,-0.0186 -0.0130854,-0.0312 0,-0.0124 0.00411,-0.0331 0.0125821,-0.0621 l 0.0656368,-0.22635 c 0.0106948,-0.0369 0.0161471,-0.0602 0.0161471,-0.0697 0,-0.007 -0.002558,-0.0135 -0.007885,-0.0181 -0.005159,-0.005 -0.0124144,-0.007 -0.0213896,-0.007 -0.007382,0 -0.0227317,0.002 -0.0460086,0.005 l 0,-0.0196 0.174221,-0.0283 z m 0.345296,-0.26121 -0.143352,0.49653 0.0575423,-0.049 c 0.0628687,-0.0533 0.103719,-0.0926 0.122676,-0.11827 0.006039,-0.008 0.008933,-0.0148 0.008933,-0.0191 0,-0.003 -8.3881e-4,-0.006 -0.002894,-0.009 -0.002097,-0.003 -0.006039,-0.005 -0.0119111,-0.007 -0.005872,-0.002 -0.016189,-0.003 -0.030994,-0.003 l -0.0177408,0 0.005494,-0.0192 0.220732,0 -0.005159,0.0192 c -0.0252062,0.001 -0.0468894,0.005 -0.0653012,0.0119 -0.018286,0.007 -0.0360268,0.0162 -0.0532643,0.0292 -0.0339298,0.0252 -0.0563679,0.0427 -0.0672305,0.0524 l -0.0434083,0.0384 c 0.007423,0.0243 0.0165665,0.0581 0.027429,0.10154 0.0180763,0.0721 0.030281,0.11483 0.0366979,0.12829 0.006543,0.0134 0.0130854,0.0202 0.0197959,0.0202 0.005704,0 0.0124144,-0.003 0.0201733,-0.009 0.0173633,-0.0128 0.0361526,-0.0331 0.0559905,-0.061 l 0.0177827,0.0126 c -0.0367398,0.0462 -0.0648399,0.0765 -0.084468,0.0912 -0.0194604,0.0146 -0.0372431,0.0219 -0.0534321,0.0219 -0.014092,0 -0.0251223,-0.006 -0.0328813,-0.0166 -0.0134629,-0.02 -0.0358591,-0.0983 -0.0670208,-0.23499 l -0.0692856,0.0602 -0.0518803,0.17929 -0.0787222,0 0.167468,-0.57634 0.0141339,-0.0489 c 0.00172,-0.008 0.0026,-0.0159 0.0026,-0.0223 0,-0.008 -0.003104,-0.0148 -0.009311,-0.0202 -0.006207,-0.005 -0.0153502,-0.008 -0.0270935,-0.008 -0.007675,0 -0.0199217,0.002 -0.0368237,0.005 l 0,-0.0176 0.174724,-0.0298 z"
   id="path3685"
   style="fill:#000000;fill-rule:nonzero" />
 <path
   class="fil0"
   d="m -1.75273,-136.439 c -0.00415,0.029 -0.00621,0.0529 -0.00621,0.0721 0,0.0511 0.018328,0.0949 0.054606,0.13119 0.036362,0.0361 0.080358,0.0541 0.132322,0.0541 0.041689,0 0.081532,-0.009 0.11995,-0.0257 0.038417,-0.0169 0.095456,-0.0547 0.171075,-0.1129 l 0.017992,0.0251 c -0.136768,0.13568 -0.267035,0.20333 -0.391136,0.20333 -0.084133,0 -0.147672,-0.0266 -0.190493,-0.0795 -0.042528,-0.0532 -0.063791,-0.11173 -0.063791,-0.17586 0,-0.086 0.026255,-0.17409 0.079435,-0.26422 0.053181,-0.0899 0.119656,-0.15992 0.199972,-0.20987 0.080064,-0.0499 0.162771,-0.0748 0.247574,-0.0748 0.061107,0 0.106361,0.0124 0.135845,0.0372 0.029274,0.0248 0.044037,0.0541 0.044037,0.0881 0,0.0482 -0.018915,0.094 -0.057039,0.13773 -0.050203,0.0573 -0.12406,0.10347 -0.221529,0.13861 -0.064672,0.0237 -0.155683,0.0423 -0.272613,0.0553 z m 0.00591,-0.0423 c 0.085349,-0.01 0.155054,-0.0266 0.208528,-0.0502 0.071173,-0.0316 0.124353,-0.0697 0.159793,-0.11378 0.03544,-0.0443 0.053181,-0.0863 0.053181,-0.1262 0,-0.0242 -0.00772,-0.0437 -0.023067,-0.0588 -0.015015,-0.0151 -0.036908,-0.0225 -0.065259,-0.0225 -0.058801,0 -0.121124,0.0313 -0.187264,0.094 -0.066182,0.0627 -0.114623,0.15518 -0.145911,0.27752 z"
   id="path3687"
   style="fill:#000000;fill-rule:nonzero" />
 <path
   class="fil0"
   d="m 0.215112,-137.374 -0.0250384,0.0733 -0.122172,0 c -0.0380819,0.0771 -0.0692017,0.15099 -0.0933594,0.2217 -0.0119111,0.0349 -0.0143436,0.0596 -0.0073396,0.0745 0.0070879,0.015 0.0194604,0.0226 0.0377464,0.0226 0.0144694,0 0.0287711,-0.005 0.0430728,-0.0151 0.0141759,-0.0102 0.026045,-0.0249 0.0357332,-0.044 l 0.017573,0 c -0.023906,0.0533 -0.0494478,0.0907 -0.0765413,0.11261 -0.0271774,0.0219 -0.0531385,0.0329 -0.0776317,0.0329 -0.0263805,0 -0.0439536,-0.012 -0.0533902,-0.0358 -0.009395,-0.024 -0.002726,-0.0686 0.0196281,-0.134 0.0140081,-0.041 0.047183,-0.11945 0.0995246,-0.23529 l -0.131274,0 c -0.0707116,0.17653 -0.121585,0.28809 -0.152412,0.33494 -0.0306165,0.0468 -0.059136,0.0702 -0.0849713,0.0702 -0.0120788,0 -0.0206766,-0.004 -0.0258772,-0.012 -0.005159,-0.008 -0.005662,-0.0183 -0.001552,-0.0303 0.00302,-0.009 0.007004,-0.0164 0.0117853,-0.0228 0.006794,-0.009 0.0189151,-0.0211 0.0364043,-0.0369 0.0298196,-0.0273 0.0538515,-0.0559 0.0722214,-0.0859 0.0319586,-0.0512 0.066182,-0.12364 0.102502,-0.21721 l -0.0232769,0 c -0.0244513,0 -0.0442891,0.004 -0.0590941,0.0122 -0.0236125,0.0121 -0.0484412,0.0323 -0.0742765,0.0605 l -0.0196701,0 c 0.0388788,-0.0583 0.0744862,-0.0984 0.107451,-0.12067 0.0248707,-0.0169 0.0548161,-0.0254 0.0894589,-0.0254 l 0.354774,0 z"
   id="path3689"
   style="fill:#000000;fill-rule:nonzero" />
</symbol>
 
<g
   id="g5052"><g
     id="g4912"><path
       style="fill:#333333;fill-opacity:1;stroke:#000000;stroke-width:0.35509673;stroke-miterlimit:4;stroke-dasharray:none"
       d="m 57.027202,5.406711 c 1.095317,0 1.978048,0.866951 1.978048,1.942694 l 0,32.647429 c 0,1.075742 -0.882731,1.942697 -1.978048,1.942697 l -54.8716047,0 c -1.095321,0 -1.97804903,-0.866955 -1.97804903,-1.942697 l 0,-12.728458 C 2.1141833,27.165415 3.6584003,25.600839 3.6584003,23.673124 c 0,-1.927715 -1.544217,-3.492305 -3.48085203,-3.595256 l 0,-12.72846 c 0,-1.075742 0.88272803,-1.942697 1.97804903,-1.942697 l 54.8716047,0 z"
       id="rect3922" /><rect
       style="fill:#cccccc;fill-opacity:1;stroke:#000000;stroke-width:0.23673119;stroke-linecap:round;stroke-linejoin:miter;stroke-miterlimit:4;stroke-opacity:1;stroke-dasharray:none"
       id="rect4910"
       width="51.942768"
       height="33.258316"
       x="4.3302135"
       y="7.0439639"
       ry="2.615823" /></g><g
     transform="translate(-63.917417,3e-6)"
     id="g5034"><path
       style="fill:#999999;fill-opacity:1;stroke:#000000;stroke-width:2;stroke-miterlimit:4;stroke-opacity:1;stroke-dasharray:none"
       d="m 574.625,1 0,6.0625 -8.5625,26.375 0,12.25 37.8125,0 0,-12.25 -8.53125,-26.375 0,-6.0625 -20.71875,0 z m 45.5625,0 0,6.0625 -8.5625,26.375 0,12.25 37.8125,0 0,-12.25 -8.53125,-26.375 0,-6.0625 -20.71875,0 z m 45.53125,0 0,6.0625 -8.53125,26.375 0,12.25 37.8125,0 0,-12.25 -8.53125,-26.375 0,-6.0625 -20.75,0 z m 45.5625,0 0,6.0625 -8.53125,26.375 0,12.25 37.8125,0 0,-12.25 -8.53125,-26.375 0,-6.0625 -20.75,0 z m 45.5625,0 0,6.0625 -8.53125,26.375 0,12.25 37.8125,0 0,-12.25 -8.53125,-26.375 0,-6.0625 -20.75,0 z m 45.5625,0 0,6.0625 -8.53125,26.375 0,12.25 37.8125,0 0,-12.25 -8.53125,-26.375 0,-6.0625 -20.75,0 z m 45.5625,0 0,6.0625 -8.53125,26.375 0,12.25 37.8125,0 0,-12.25 -8.53125,-26.375 0,-6.0625 -20.75,0 z m 45.5625,0 0,6.0625 -8.53125,26.375 0,12.25 37.8125,0 0,-12.25 -8.53125,-26.375 0,-6.0625 -20.75,0 z m 45.5625,0 0,6.0625 -8.53125,26.375 0,12.25 37.8125,0 0,-12.25 -8.5625,-26.375 0,-6.0625 -20.71875,0 z m 45.5625,0 0,6.0625 -8.53125,26.375 0,12.25 37.8125,0 0,-12.25 -8.5625,-26.375 0,-6.0625 -20.71875,0 z"
       transform="matrix(0.11836559,0,0,0.11836559,-4.2347111e-7,0)"
       id="path4952" /><path
       style="fill:#999999;fill-opacity:1;stroke:#000000;stroke-width:2;stroke-miterlimit:4;stroke-opacity:1;stroke-dasharray:none"
       d="m 566.0625,354.3125 0,12.25 8.5625,26.375 0,6.0625 20.71875,0 0,-6.0625 8.53125,-26.375 0,-12.25 -37.8125,0 z m 45.5625,0 0,12.25 8.5625,26.375 0,6.0625 20.71875,0 0,-6.0625 8.53125,-26.375 0,-12.25 -37.8125,0 z m 45.5625,0 0,12.25 8.53125,26.375 0,6.0625 20.75,0 0,-6.0625 8.53125,-26.375 0,-12.25 -37.8125,0 z m 45.5625,0 0,12.25 8.53125,26.375 0,6.0625 20.75,0 0,-6.0625 8.53125,-26.375 0,-12.25 -37.8125,0 z m 45.5625,0 0,12.25 8.53125,26.375 0,6.0625 20.75,0 0,-6.0625 8.53125,-26.375 0,-12.25 -37.8125,0 z m 45.5625,0 0,12.25 8.53125,26.375 0,6.0625 20.75,0 0,-6.0625 8.53125,-26.375 0,-12.25 -37.8125,0 z m 45.5625,0 0,12.25 8.53125,26.375 0,6.0625 20.75,0 0,-6.0625 8.53125,-26.375 0,-12.25 -37.8125,0 z m 45.5625,0 0,12.25 8.53125,26.375 0,6.0625 20.75,0 0,-6.0625 8.53125,-26.375 0,-12.25 -37.8125,0 z m 45.5625,0 0,12.25 8.53125,26.375 0,6.0625 20.71875,0 0,-6.0625 8.5625,-26.375 0,-12.25 -37.8125,0 z m 45.5625,0 0,12.25 8.53125,26.375 0,6.0625 20.71875,0 0,-6.0625 8.5625,-26.375 0,-12.25 -37.8125,0 z"
       transform="matrix(0.11836559,0,0,0.11836559,-4.2347111e-7,0)"
       id="path4974" /></g></g></svg>