<?xml version="1.1" encoding="UTF-8"?>
 <!DOCTYPE svg PUBLIC "-//W3C//DTD SVG 1.1//EN"
   "http://www.w3.org/Graphics/SVG/1.1/DTD/svg11.dtd">
 <svg version="1.1" width="570" height="144">
  <path d="M 11.22722,20.60184 C 11.22722,20.60184 3.01293,19.54109 3.01293,11.67327 3.01293,3.67919 10.6915,3.9947 10.6915,3.9947 10.6915,3.9947 51.22722,3.48962 51.22722,3.48962 57.36797,3.40234 62.93667,13.87817 57.37787,18.67934 53.64582,22.41139 20.51293,54.88755 20.51293,54.88755 L 20.51293,69.53041 87.47722,2.56613 C 87.47722,2.56613 129.66472,2.56613 129.66472,2.56613 134.66564,2.29827 144.43631,9.26679 136.22722,19.75363 136.22722,19.75363 33.1915,122.92327 33.1915,122.92327 L 49.08436,122.92327 C 49.08436,122.92327 124.69296,46.30452 124.69296,46.30452 129.91003,40.44737 140.35133,44.82883 140.35133,54.63924 140.35133,54.63924 140.35133,83.53306 140.35133,94.53041 140.35133,95.37817 112.57499,122.9381 112.57499,122.9381 112.57499,122.9381 131.70691,122.9381 131.70691,122.9381 132.32505,122.9381 139.47117,124.45432 139.47117,132.3051 139.47117,138.42255 132.1911,141.40702 130.55865,141.40702 130.55865,141.40702 93.37007,141.40702 93.37007,141.40702 86.45426,141.40702 82.78891,137.20633 82.78891,134.04015 82.78891,134.04015 82.78891,128.10184 82.78891,128.10184 82.78891,126.665 122.18664,88.70412 122.18664,88.70412 L 122.18664,73.10184 C 122.18664,73.10184 53.60885,141.43869 53.60885,141.43869 53.60885,141.43869 21.21525,141.26186 12.147,141.43869 2.98949,141.61726 -0.19664,128.41958 7.98132,122.10785 7.98132,122.10785 108.75013,21.33904 108.75013,21.33904 L 93.37008,21.33904 15.88153,98.82758 C 8.68684,103.3518 2.42315,96.27409 2.63387,91.27353 L 2.63387,48.10184 29.78769,20.94803 11.22722,20.60184 z" fill="#008700" />
  <path d="M 553.22834,71.61667 566.8654,68.83876 C 566.8654,68.83876 560.6224,46.36286 541.35879,46.36286 527.3127,46.36286 511.55955,54.5116 511.55955,82.47581 511.55955,112.28604 529.32472,116.46386 539.93022,116.46386 549.77192,116.46386 557.77403,107.37249 557.77403,107.37249 L 560.29941,115.30577 567.37048,115.30577 567.37048,79.44536 539.33874,79.44536 539.33874,91.06211 552.72326,91.06211 C 552.72326,91.06211 552.73521,103.43648 540.34864,103.43648 529.85933,103.43648 526.50116,89.42947 526.4593,81.46566 526.41678,73.376 530.23629,58.98977 541.35879,58.98977 548.57806,58.98977 553.22834,71.61667 553.22834,71.61667 z M 504.08479,116.46386 456.22722,116.46386 456.22722,48.24958 504.08479,48.24958 504.08479,61.46386 471.94179,61.46386 471.94179,74.67815 497.65579,74.67815 497.65579,88.24958 471.94179,88.24958 471.94179,102.89244 504.08479,102.89244 504.08479,116.46386 z M 393.87454,48.05761 393.87454,116.46386 409.78079,116.46386 409.78079,90.96386 C 409.78079,90.96386 425.93704,90.96386 425.93704,90.96386 429.13519,90.96386 446.90577,89.80267 446.90579,68.99511 446.90579,50.06812 427.81201,48.05761 425.93704,48.05761 425.93704,48.05761 393.87454,48.05761 393.87454,48.05761 z M 422.46829,60.56654 C 423.61432,60.56654 431.40134,61.85716 431.40133,69.58886 431.40133,77.3795 424.32343,78.33886 422.46829,78.33886 420.52408,78.33886 409.96829,78.33886 409.96829,78.33886 L 409.96829,60.49511 C 409.96829,60.49511 422.46829,60.56654 422.46829,60.56654 z M 307.65579,116.10671 320.51293,116.10671 320.15579,62.71357 337.65579,116.46386 348.01293,116.46386 364.62008,62.71357 365.15579,115.74957 380.15579,115.74957 380.15579,47.89243 356.22722,47.89243 342.33023,88.42722 330.87008,47.89243 307.65579,47.89243 307.65579,116.10671 z M 237.12008,116.46386 258.54908,116.46386 258.54908,81.46386 291.04865,81.46386 291.04865,65.03529 258.54908,65.03529 258.54908,44.67815 299.62008,44.67815 299.62008,27.53529 237.12008,27.53529 237.12008,116.46386 z M 160.15579,116.46386 181.58479,116.46386 181.58479,81.46386 214.08436,81.46386 214.08436,65.03529 181.58479,65.03529 181.58479,44.67815 222.65579,44.67815 222.65579,27.53529 160.15579,27.53529 160.15579,116.46386 z" />
 </svg>